<svg width="23" height="21" viewBox="0 0 23 21" fill="none" xmlns="http://www.w3.org/2000/svg">
<path d="M2.83521 4.83694C1.26871 4.83694 0 3.75539 0 2.41977C0 1.08296 1.26871 0 2.83521 0C4.4002 0 5.66891 1.08296 5.66891 2.41977C5.66891 3.75539 4.4002 4.83694 2.83521 4.83694ZM0.649492 20.3862V6.67848H5.73393V20.3862H0.649492ZM12.87 12.7622V20.2111H7.79391V6.50339H12.87V8.34883C14.2057 6.73667 15.3663 6.07134 17.4705 6.07134C19.5765 6.07134 23 7.00469 23 12.4186V20.2111H17.9383V12.7246C17.9383 11.1902 17.4705 9.65302 15.5681 9.65302C13.6656 9.65302 12.87 11.1902 12.87 12.7622Z" fill="white"/>
</svg>
